<svg width="338" height="338" xmlns="http://www.w3.org/2000/svg" xmlns:xlink="http://www.w3.org/1999/xlink" overflow="hidden"><defs><clipPath id="clip0"><rect x="471" y="191" width="338" height="338"/></clipPath></defs><g clip-path="url(#clip0)" transform="translate(-471 -191)"><path d="M472 360C472 267.216 547.216 192 640 192 732.784 192 808 267.216 808 360 808 452.784 732.784 528 640 528 547.216 528 472 452.784 472 360Z" fill-rule="evenodd"/><path d="M541 360C541 305.876 585.324 262 640 262 694.676 262 739 305.876 739 360 739 414.124 694.676 458 640 458 585.324 458 541 414.124 541 360Z" fill="#FFFFFF" fill-rule="evenodd"/><path d="M569 374.5C569 335.012 600.564 303 639.5 303 678.436 303 710 335.012 710 374.5 710 413.988 678.436 446 639.5 446 600.564 446 569 413.988 569 374.5Z" fill-rule="evenodd"/><path d="M635 319C635 298.013 652.013 281 673 281 693.987 281 711 298.013 711 319 711 339.987 693.987 357 673 357 652.013 357 635 339.987 635 319Z" fill="#FFFFFF" fill-rule="evenodd"/><path d="M598.294 388C610.834 388 621 397.85 621 410 621 422.15 610.834 432 598.294 432L598.234 431.994 588.965 424.385C585.767 421.203 582.875 417.718 580.334 413.977L576 406.032 576.048 405.566C578.166 395.541 587.321 388 598.294 388Z" fill="#C5C5C5" fill-rule="evenodd"/></g></svg>